#!OML:ASF C:\ViconDB\ViconDB\414\Spring2016\041811\Spring2016.ASF
:FULLY-SPECIFIED
:DEGREES
197
root 10.8535 17.5166 -6.70231 -178.53 -6.17542 -170.478
lowerback -2.11751 2.82929 -4.06618
upperback 0.891313 3.88379 0.0037628
thorax 1.8323 1.88478 2.41021
lowerneck -9.91454 -4.12567 -12.7756
upperneck 19.3638 -11.4208 25.4302
head 10.0534 -5.05382 9.96252
rclavicle -1.39149e-014 -3.33958e-014
rhumerus -86.9901 32.0603 -119.371
rradius 82.4502
rwrist 26.8326
rhand -51.5224 -5.66627
rfingers 7.12502
rthumb -24.0497 -34.1794
lclavicle -1.39149e-014 -3.33958e-014
lhumerus -80.1091 -42.3239 114.635
lradius 79.5881
lwrist -31.6811
lhand -42.6203 -4.09064
lfingers 7.12502
lthumb -15.4927 25.3086
rfemur 140.241 42.3607 -168.741
rtibia 28.9278
rfoot -58.6458 -52.6481
rtoes 0.228547
lfemur -39.9252 -14.2484 -2.73895
ltibia 40.5685
lfoot -6.01327 -8.635
ltoes -9.5289
198
root 10.7844 17.5264 -6.89734 -178.68 -6.07174 -170.788
lowerback -2.15499 2.83425 -4.04232
upperback 0.937803 3.89245 -0.0524356
thorax 1.90602 1.88679 2.34337
lowerneck -9.97666 -4.03877 -12.576
upperneck 19.6044 -11.2996 25.1402
head 10.0854 -4.9866 9.83326
rclavicle -3.69739e-014 6.20208e-014
rhumerus -86.9305 32.006 -119.348
rradius 82.4743
rwrist 26.7286
rhand -51.731 -5.39512
rfingers 7.12502
rthumb -24.2496 -33.8817
lclavicle -3.69739e-014 6.20208e-014
lhumerus -80.0832 -42.4289 114.609
lradius 79.5515
lwrist -31.7747
lhand -42.2957 -3.85973
lfingers 7.12502
lthumb -15.18 25.5634
rfemur 140.51 39.8581 -168.642
rtibia 28.3205
rfoot -55.606 -53.9346
rtoes -0.137787
lfemur -39.2525 -14.5255 -3.46515
ltibia 41.1726
lfoot -6.84423 -8.42688
ltoes -9.46163
199
root 10.7186 17.5351 -7.08913 -178.851 -5.90464 -171.219
lowerback -2.04634 2.83432 -4.24959
upperback 0.911973 3.89189 -0.0639176
thorax 1.80587 1.88621 2.43943
lowerneck -9.93116 -3.95804 -12.3999
upperneck 19.8966 -11.1492 24.6914
head 10.0952 -4.91977 9.65107
rclavicle -7.95139e-015 -1.43125e-014
rhumerus -87.0798 32.0823 -119.433
rradius 82.5428
rwrist 26.8624
rhand -51.5338 -5.81398
rfingers 7.12502
rthumb -24.0605 -34.3256
lclavicle -7.95139e-015 -1.43125e-014
lhumerus -80.198 -42.3983 114.664
lradius 79.5821
lwrist -31.9607
lhand -41.9711 -3.49553
lfingers 7.12502
lthumb -14.8673 25.951
rfemur 140.631 37.4577 -168.72
rtibia 27.8314
rfoot -52.6693 -55.5464
rtoes -0.289902
lfemur -38.4583 -14.8237 -4.31909
ltibia 41.6935
lfoot -7.73526 -8.1241
ltoes -9.83355
200
root 10.6478 17.5431 -7.28037 -178.973 -5.81992 -171.664
lowerback -2.02985 2.80637 -4.3435
upperback 0.883148 3.85557 -0.14142
thorax 1.76881 1.86796 2.40925
lowerneck -9.98679 -3.83401 -12.2657
upperneck 20.3035 -11.0248 24.414
head 10.1904 -4.86055 9.55323
rclavicle 2.59414e-014 -1.27222e-014
rhumerus -87.1594 32.1457 -119.524
rradius 82.6395
rwrist 26.8785
rhand -51.4707 -5.75548
rfingers 7.12502
rthumb -24 -34.2751
lclavicle 2.59414e-014 -1.27222e-014
lhumerus -80.3425 -42.4322 114.617
lradius 79.6701
lwrist -32.0156
lhand -41.8423 -3.3867
lfingers 7.12502
lthumb -14.7432 26.069
rfemur 140.567 35.2937 -168.859
rtibia 27.6684
rfoot -49.7043 -57.7668
rtoes 0.0747073
lfemur -37.7678 -15.1101 -5.20054
ltibia 42.2688
lfoot -8.60863 -7.9675
ltoes -10.0479
